<svg xmlns="http://www.w3.org/2000/svg" xmlns:xlink="http://www.w3.org/1999/xlink" width="1521" zoomAndPan="magnify" viewBox="0 0 1140.75 1034.999953" height="1380" preserveAspectRatio="xMidYMid meet" version="1.0"><defs><clipPath id="27003ead17"><path d="M 0 0.113281 L 1140.253906 0.113281 L 1140.253906 1034.664062 L 0 1034.664062 Z M 0 0.113281 " clip-rule="nonzero"/></clipPath><clipPath id="68bd96c6a6"><path d="M 80.347656 802.703125 L 235.183594 802.703125 L 235.183594 979.3125 L 80.347656 979.3125 Z M 80.347656 802.703125 " clip-rule="nonzero"/></clipPath><clipPath id="d145a9b8d9"><path d="M 80.347656 979.308594 L 80.347656 802.703125 L 108.722656 802.703125 L 157.402344 952.410156 L 157.894531 952.410156 L 206.8125 802.703125 L 235.179688 802.703125 L 235.179688 979.308594 L 219.035156 979.308594 L 219.035156 815.917969 L 218.546875 815.917969 L 165.46875 979.308594 L 150.054688 979.308594 L 96.980469 815.917969 L 96.488281 815.917969 L 96.488281 979.308594 Z M 80.347656 979.308594 " clip-rule="nonzero"/></clipPath><clipPath id="723bf6f652"><path d="M 79.289062 503.882812 L 306.914062 503.882812 L 306.914062 761.476562 L 79.289062 761.476562 Z M 79.289062 503.882812 " clip-rule="nonzero"/></clipPath><clipPath id="69b2d78394"><path d="M 79.289062 761.472656 L 79.289062 503.882812 L 148.148438 503.882812 L 192.738281 672.988281 L 193.449219 672.988281 L 238.050781 503.882812 L 306.910156 503.882812 L 306.910156 761.472656 L 264.808594 761.472656 L 264.808594 558.828125 L 264.097656 558.828125 L 211.652344 761.472656 L 174.546875 761.472656 L 122.101562 558.828125 L 121.390625 558.828125 L 121.390625 761.472656 Z M 79.289062 761.472656 " clip-rule="nonzero"/></clipPath><clipPath id="b357d56d8a"><path d="M 285.570312 802.707031 L 301.714844 802.707031 L 301.714844 979.308594 L 285.570312 979.308594 Z M 285.570312 802.707031 " clip-rule="nonzero"/></clipPath><clipPath id="ad5e20da26"><path d="M 352.105469 802.707031 L 479.789062 802.707031 L 479.789062 979.3125 L 352.105469 979.3125 Z M 352.105469 802.707031 " clip-rule="nonzero"/></clipPath><clipPath id="4895b4c5fa"><path d="M 352.105469 802.707031 L 379.253906 802.707031 L 463.15625 949.960938 L 463.644531 949.960938 L 463.644531 802.707031 L 479.789062 802.707031 L 479.789062 979.308594 L 463.15625 979.308594 L 368.738281 815.910156 L 368.246094 815.910156 L 368.246094 979.308594 L 352.105469 979.308594 Z M 352.105469 802.707031 " clip-rule="nonzero"/></clipPath><clipPath id="03c4b48338"><path d="M 528.671875 802.613281 L 656 802.613281 L 656 979.402344 L 528.671875 979.402344 Z M 528.671875 802.613281 " clip-rule="nonzero"/></clipPath><clipPath id="0b2d435f76"><path d="M 544.851562 966.105469 L 579.09375 966.105469 C 598.828125 966.105469 613.789062 959.589844 623.976562 946.535156 C 634.160156 933.480469 639.257812 914.980469 639.257812 891.007812 C 639.257812 867.039062 634.160156 848.527344 623.976562 835.484375 C 613.789062 822.4375 598.816406 815.914062 579.09375 815.914062 L 544.851562 815.914062 Z M 528.707031 802.707031 L 578.605469 802.707031 C 592.300781 802.707031 604.003906 805.117188 613.710938 809.925781 C 623.417969 814.734375 631.363281 821.167969 637.558594 829.246094 C 643.757812 837.324219 648.285156 846.699219 651.132812 857.375 C 653.984375 868.050781 655.414062 879.265625 655.414062 891.007812 C 655.414062 902.753906 653.984375 913.960938 651.132812 924.644531 C 648.285156 935.332031 643.757812 944.707031 637.558594 952.773438 C 631.363281 960.839844 623.417969 967.285156 613.710938 972.09375 C 604.003906 976.902344 592.308594 979.3125 578.605469 979.3125 L 528.707031 979.3125 Z M 528.707031 802.707031 " clip-rule="nonzero"/></clipPath><clipPath id="9fa2e8a39e"><path d="M 675 800.136719 L 791.9375 800.136719 L 791.9375 981.882812 L 675 981.882812 Z M 675 800.136719 " clip-rule="nonzero"/></clipPath><clipPath id="bda9f89655"><path d="M 690.148438 929.902344 C 693.574219 943.4375 699.324219 953.261719 707.390625 959.378906 C 715.457031 965.496094 726.511719 968.554688 740.535156 968.554688 C 751.621094 968.554688 760.265625 965.378906 766.464844 959.019531 C 772.660156 952.664062 775.761719 944.097656 775.761719 933.339844 C 775.761719 925.515625 773.390625 919.238281 768.664062 914.507812 C 763.933594 909.78125 758.027344 905.824219 750.929688 902.644531 C 743.832031 899.464844 736.167969 896.527344 727.941406 893.839844 C 719.714844 891.148438 712.039062 887.890625 704.949219 884.050781 C 697.863281 880.214844 691.945312 875.367188 687.21875 869.5 C 682.492188 863.632812 680.121094 855.804688 680.121094 846.019531 C 680.121094 839.503906 681.222656 833.425781 683.421875 827.796875 C 685.621094 822.167969 688.878906 817.320312 693.207031 813.242188 C 697.535156 809.164062 702.871094 805.988281 709.230469 803.707031 C 715.585938 801.429688 722.84375 800.257812 731 800.257812 C 745.023438 800.257812 756.929688 803.886719 766.714844 811.144531 C 776.5 818.402344 783.425781 828.875 787.503906 842.582031 L 773.5625 846.738281 C 770.292969 836.953125 765.203125 828.964844 758.269531 822.769531 C 751.332031 816.570312 742.246094 813.472656 731 813.472656 C 720.722656 813.472656 712.367188 816.28125 705.929688 821.910156 C 699.492188 827.539062 696.265625 835.574219 696.265625 846 C 696.265625 848.9375 696.632812 851.746094 697.363281 854.433594 C 698.09375 857.125 699.691406 859.734375 702.132812 862.261719 C 704.570312 864.789062 708.160156 867.398438 712.898438 870.089844 C 717.636719 872.777344 724.0625 875.675781 732.21875 878.773438 C 744.613281 883.503906 754.679688 887.871094 762.425781 891.859375 C 770.171875 895.847656 776.25 900.015625 780.648438 904.332031 C 785.046875 908.652344 788.023438 913.261719 789.574219 918.15625 C 791.125 923.054688 791.902344 928.671875 791.902344 935.039062 C 791.902344 942.546875 790.433594 949.183594 787.496094 954.972656 C 784.554688 960.757812 780.648438 965.65625 775.75 969.644531 C 770.851562 973.632812 765.144531 976.664062 758.628906 978.691406 C 752.109375 980.71875 745.253906 981.75 738.078125 981.75 C 721.113281 981.75 707.621094 977.960938 697.59375 970.375 C 687.570312 962.789062 680.101562 950.84375 675.214844 934.539062 Z M 690.148438 929.902344 " clip-rule="nonzero"/></clipPath><clipPath id="ee311635aa"><path d="M 354.003906 503.304688 L 492.917969 503.304688 L 492.917969 762 L 354.003906 762 Z M 354.003906 503.304688 " clip-rule="nonzero"/></clipPath><clipPath id="41a879748c"><path d="M 354.007812 761.46875 L 354.007812 503.882812 L 488.867188 503.882812 L 488.867188 547.414062 L 403.246094 547.414062 L 403.246094 606.636719 L 468.535156 606.636719 L 468.535156 650.160156 L 403.246094 650.160156 L 403.246094 717.949219 L 492.4375 717.949219 L 492.4375 761.480469 Z M 354.007812 761.46875 " clip-rule="nonzero"/></clipPath><clipPath id="a933e88afc"><path d="M 517.414062 503.882812 L 681.523438 503.882812 L 681.523438 547.414062 L 517.414062 547.414062 Z M 574.851562 547.414062 L 624.089844 547.414062 L 624.089844 761.46875 L 574.851562 761.46875 Z M 574.851562 547.414062 " clip-rule="nonzero"/></clipPath><clipPath id="89075dc528"><path d="M 710 503.304688 L 879.679688 503.304688 L 879.679688 762 L 710 762 Z M 710 503.304688 " clip-rule="nonzero"/></clipPath><clipPath id="03f89bd8ed"><path d="M 760.019531 615.914062 L 785.347656 615.914062 C 796.285156 615.914062 804.851562 613.117188 811.039062 607.527344 C 817.226562 601.941406 820.3125 592.84375 820.3125 580.238281 C 820.3125 567.636719 817.226562 558.539062 811.039062 552.941406 C 804.851562 547.34375 796.285156 544.554688 785.347656 544.554688 L 760.019531 544.554688 Z M 826.378906 761.480469 L 783.570312 656.585938 L 760.019531 656.585938 L 760.019531 761.46875 L 710.78125 761.46875 L 710.78125 503.882812 L 782.140625 503.882812 C 811.867188 503.882812 833.878906 510.609375 848.140625 524.042969 C 862.40625 537.476562 869.550781 556.460938 869.550781 580.949219 C 869.550781 597.121094 866.523438 610.796875 860.457031 621.980469 C 854.386719 633.167969 844.453125 641.371094 830.667969 646.601562 L 879.175781 761.46875 Z M 826.378906 761.480469 " clip-rule="nonzero"/></clipPath><clipPath id="f2073dc64b"><path d="M 904.664062 500.304688 L 1068 500.304688 L 1068 765.050781 L 904.664062 765.050781 Z M 904.664062 500.304688 " clip-rule="nonzero"/></clipPath><clipPath id="9e00be38a2"><path d="M 954.105469 685.125 C 954.105469 699.398438 956.953125 709.035156 962.671875 714.019531 C 968.390625 719.007812 976.226562 721.519531 986.222656 721.519531 C 996.214844 721.519531 1004.0625 719.019531 1009.769531 714.019531 C 1015.476562 709.023438 1018.335938 699.398438 1018.335938 685.125 L 1018.335938 580.230469 C 1018.335938 565.957031 1015.488281 556.328125 1009.769531 551.332031 C 1004.054688 546.335938 996.214844 543.84375 986.222656 543.84375 C 976.226562 543.84375 968.378906 546.34375 962.671875 551.332031 C 956.964844 556.320312 954.105469 565.964844 954.105469 580.230469 Z M 904.867188 586.65625 C 904.867188 570.722656 906.886719 557.28125 910.933594 546.34375 C 914.980469 535.410156 920.570312 526.542969 927.707031 519.765625 C 934.84375 512.988281 943.410156 508.050781 953.394531 504.960938 C 963.382812 501.875 974.316406 500.316406 986.210938 500.316406 C 998.105469 500.316406 1009.042969 501.863281 1019.035156 504.953125 C 1029.03125 508.042969 1037.589844 512.980469 1044.726562 519.757812 C 1051.863281 526.53125 1057.449219 535.398438 1061.5 546.335938 C 1065.546875 557.269531 1067.566406 570.722656 1067.566406 586.648438 L 1067.566406 678.695312 C 1067.566406 694.640625 1065.535156 708.074219 1061.5 719.007812 C 1057.460938 729.945312 1051.863281 738.8125 1044.726562 745.585938 C 1037.589844 752.363281 1029.03125 757.300781 1019.035156 760.390625 C 1009.042969 763.480469 998.105469 765.027344 986.210938 765.027344 C 974.316406 765.027344 963.382812 763.480469 953.386719 760.390625 C 943.390625 757.300781 934.832031 752.363281 927.695312 745.585938 C 920.558594 738.8125 914.972656 729.953125 910.921875 719.007812 C 906.875 708.0625 904.855469 694.628906 904.855469 678.695312 Z M 904.867188 586.65625 " clip-rule="nonzero"/></clipPath><clipPath id="ecc4caa0b7"><path d="M 827.808594 802.238281 L 933.398438 802.238281 L 933.398438 979.777344 L 827.808594 979.777344 Z M 827.808594 802.238281 " clip-rule="nonzero"/></clipPath><clipPath id="6fc955ac2a"><path d="M 827.859375 979.308594 L 827.859375 802.703125 L 928.636719 802.703125 L 928.636719 815.917969 L 844.003906 815.917969 L 844.003906 880.980469 L 904.917969 880.980469 L 904.917969 894.183594 L 844.003906 894.183594 L 844.003906 966.101562 L 933.285156 966.101562 L 933.285156 979.316406 Z M 827.859375 979.308594 " clip-rule="nonzero"/></clipPath><clipPath id="3c793025a8"><path d="M 946.988281 802.703125 L 1067.816406 802.703125 L 1067.816406 815.917969 L 946.988281 815.917969 Z M 999.328125 815.917969 L 1015.480469 815.917969 L 1015.480469 979.308594 L 999.328125 979.308594 Z M 999.328125 815.917969 " clip-rule="nonzero"/></clipPath><clipPath id="5c217c9c32"><path d="M 69.351562 419.742188 L 112.4375 419.742188 L 112.4375 462.832031 L 69.351562 462.832031 Z M 69.351562 419.742188 " clip-rule="nonzero"/></clipPath><clipPath id="5cc6fb1f59"><path d="M 90.894531 419.742188 C 78.996094 419.742188 69.351562 429.386719 69.351562 441.285156 C 69.351562 453.183594 78.996094 462.832031 90.894531 462.832031 C 102.792969 462.832031 112.4375 453.183594 112.4375 441.285156 C 112.4375 429.386719 102.792969 419.742188 90.894531 419.742188 Z M 90.894531 419.742188 " clip-rule="nonzero"/></clipPath><clipPath id="a2a9fb4cd1"><path d="M 122.785156 419.742188 L 165.871094 419.742188 L 165.871094 462.832031 L 122.785156 462.832031 Z M 122.785156 419.742188 " clip-rule="nonzero"/></clipPath><clipPath id="613b74b8e9"><path d="M 144.328125 419.742188 C 132.429688 419.742188 122.785156 429.386719 122.785156 441.285156 C 122.785156 453.183594 132.429688 462.832031 144.328125 462.832031 C 156.226562 462.832031 165.871094 453.183594 165.871094 441.285156 C 165.871094 429.386719 156.226562 419.742188 144.328125 419.742188 Z M 144.328125 419.742188 " clip-rule="nonzero"/></clipPath><clipPath id="23a934ca26"><path d="M 176.21875 419.742188 L 219.308594 419.742188 L 219.308594 462.832031 L 176.21875 462.832031 Z M 176.21875 419.742188 " clip-rule="nonzero"/></clipPath><clipPath id="4399093e4f"><path d="M 197.761719 419.742188 C 185.863281 419.742188 176.21875 429.386719 176.21875 441.285156 C 176.21875 453.183594 185.863281 462.832031 197.761719 462.832031 C 209.660156 462.832031 219.308594 453.183594 219.308594 441.285156 C 219.308594 429.386719 209.660156 419.742188 197.761719 419.742188 Z M 197.761719 419.742188 " clip-rule="nonzero"/></clipPath><clipPath id="a88f235a6e"><path d="M 229.652344 419.742188 L 272.742188 419.742188 L 272.742188 462.832031 L 229.652344 462.832031 Z M 229.652344 419.742188 " clip-rule="nonzero"/></clipPath><clipPath id="190d3fb451"><path d="M 251.195312 419.742188 C 239.296875 419.742188 229.652344 429.386719 229.652344 441.285156 C 229.652344 453.183594 239.296875 462.832031 251.195312 462.832031 C 263.09375 462.832031 272.742188 453.183594 272.742188 441.285156 C 272.742188 429.386719 263.09375 419.742188 251.195312 419.742188 Z M 251.195312 419.742188 " clip-rule="nonzero"/></clipPath><clipPath id="11c84093fb"><path d="M 283.085938 419.742188 L 326.175781 419.742188 L 326.175781 462.832031 L 283.085938 462.832031 Z M 283.085938 419.742188 " clip-rule="nonzero"/></clipPath><clipPath id="9761119925"><path d="M 304.628906 419.742188 C 292.730469 419.742188 283.085938 429.386719 283.085938 441.285156 C 283.085938 453.183594 292.730469 462.832031 304.628906 462.832031 C 316.527344 462.832031 326.175781 453.183594 326.175781 441.285156 C 326.175781 429.386719 316.527344 419.742188 304.628906 419.742188 Z M 304.628906 419.742188 " clip-rule="nonzero"/></clipPath><clipPath id="0e46512a1b"><path d="M 336.519531 419.742188 L 379.609375 419.742188 L 379.609375 462.832031 L 336.519531 462.832031 Z M 336.519531 419.742188 " clip-rule="nonzero"/></clipPath><clipPath id="0fc3c06cfa"><path d="M 358.0625 419.742188 C 346.164062 419.742188 336.519531 429.386719 336.519531 441.285156 C 336.519531 453.183594 346.164062 462.832031 358.0625 462.832031 C 369.960938 462.832031 379.609375 453.183594 379.609375 441.285156 C 379.609375 429.386719 369.960938 419.742188 358.0625 419.742188 Z M 358.0625 419.742188 " clip-rule="nonzero"/></clipPath><clipPath id="40776682ed"><path d="M 389.953125 419.742188 L 433.042969 419.742188 L 433.042969 462.832031 L 389.953125 462.832031 Z M 389.953125 419.742188 " clip-rule="nonzero"/></clipPath><clipPath id="d920338aa4"><path d="M 411.496094 419.742188 C 399.597656 419.742188 389.953125 429.386719 389.953125 441.285156 C 389.953125 453.183594 399.597656 462.832031 411.496094 462.832031 C 423.398438 462.832031 433.042969 453.183594 433.042969 441.285156 C 433.042969 429.386719 423.398438 419.742188 411.496094 419.742188 Z M 411.496094 419.742188 " clip-rule="nonzero"/></clipPath><clipPath id="a541c0717e"><path d="M 443.386719 419.742188 L 486.476562 419.742188 L 486.476562 462.832031 L 443.386719 462.832031 Z M 443.386719 419.742188 " clip-rule="nonzero"/></clipPath><clipPath id="c2878aadf2"><path d="M 464.933594 419.742188 C 453.03125 419.742188 443.386719 429.386719 443.386719 441.285156 C 443.386719 453.183594 453.03125 462.832031 464.933594 462.832031 C 476.832031 462.832031 486.476562 453.183594 486.476562 441.285156 C 486.476562 429.386719 476.832031 419.742188 464.933594 419.742188 Z M 464.933594 419.742188 " clip-rule="nonzero"/></clipPath><clipPath id="76a7451ed5"><path d="M 496.820312 419.742188 L 539.910156 419.742188 L 539.910156 462.832031 L 496.820312 462.832031 Z M 496.820312 419.742188 " clip-rule="nonzero"/></clipPath><clipPath id="26e3a070b6"><path d="M 518.367188 419.742188 C 506.46875 419.742188 496.820312 429.386719 496.820312 441.285156 C 496.820312 453.183594 506.46875 462.832031 518.367188 462.832031 C 530.265625 462.832031 539.910156 453.183594 539.910156 441.285156 C 539.910156 429.386719 530.265625 419.742188 518.367188 419.742188 Z M 518.367188 419.742188 " clip-rule="nonzero"/></clipPath><clipPath id="77e9cca3c9"><path d="M 550.253906 419.742188 L 593.34375 419.742188 L 593.34375 462.832031 L 550.253906 462.832031 Z M 550.253906 419.742188 " clip-rule="nonzero"/></clipPath><clipPath id="6ce8450b57"><path d="M 571.800781 419.742188 C 559.902344 419.742188 550.253906 429.386719 550.253906 441.285156 C 550.253906 453.183594 559.902344 462.832031 571.800781 462.832031 C 583.699219 462.832031 593.34375 453.183594 593.34375 441.285156 C 593.34375 429.386719 583.699219 419.742188 571.800781 419.742188 Z M 571.800781 419.742188 " clip-rule="nonzero"/></clipPath><clipPath id="77b5bd800f"><path d="M 603.6875 419.742188 L 646.777344 419.742188 L 646.777344 462.832031 L 603.6875 462.832031 Z M 603.6875 419.742188 " clip-rule="nonzero"/></clipPath><clipPath id="63040e9c5a"><path d="M 625.234375 419.742188 C 613.335938 419.742188 603.6875 429.386719 603.6875 441.285156 C 603.6875 453.183594 613.335938 462.832031 625.234375 462.832031 C 637.132812 462.832031 646.777344 453.183594 646.777344 441.285156 C 646.777344 429.386719 637.132812 419.742188 625.234375 419.742188 Z M 625.234375 419.742188 " clip-rule="nonzero"/></clipPath><clipPath id="b11512191b"><path d="M 657.121094 419.742188 L 700.210938 419.742188 L 700.210938 462.832031 L 657.121094 462.832031 Z M 657.121094 419.742188 " clip-rule="nonzero"/></clipPath><clipPath id="21b5fffc61"><path d="M 678.667969 419.742188 C 666.769531 419.742188 657.121094 429.386719 657.121094 441.285156 C 657.121094 453.183594 666.769531 462.832031 678.667969 462.832031 C 690.566406 462.832031 700.210938 453.183594 700.210938 441.285156 C 700.210938 429.386719 690.566406 419.742188 678.667969 419.742188 Z M 678.667969 419.742188 " clip-rule="nonzero"/></clipPath><clipPath id="d073b0a666"><path d="M 710.554688 419.742188 L 753.644531 419.742188 L 753.644531 462.832031 L 710.554688 462.832031 Z M 710.554688 419.742188 " clip-rule="nonzero"/></clipPath><clipPath id="98963e3532"><path d="M 732.101562 419.742188 C 720.203125 419.742188 710.554688 429.386719 710.554688 441.285156 C 710.554688 453.183594 720.203125 462.832031 732.101562 462.832031 C 744 462.832031 753.644531 453.183594 753.644531 441.285156 C 753.644531 429.386719 744 419.742188 732.101562 419.742188 Z M 732.101562 419.742188 " clip-rule="nonzero"/></clipPath><clipPath id="7f58385189"><path d="M 763.992188 419.742188 L 807.078125 419.742188 L 807.078125 462.832031 L 763.992188 462.832031 Z M 763.992188 419.742188 " clip-rule="nonzero"/></clipPath><clipPath id="97fd9247d8"><path d="M 785.535156 419.742188 C 773.636719 419.742188 763.992188 429.386719 763.992188 441.285156 C 763.992188 453.183594 773.636719 462.832031 785.535156 462.832031 C 797.433594 462.832031 807.078125 453.183594 807.078125 441.285156 C 807.078125 429.386719 797.433594 419.742188 785.535156 419.742188 Z M 785.535156 419.742188 " clip-rule="nonzero"/></clipPath><clipPath id="ec69573fb3"><path d="M 817.425781 419.742188 L 860.515625 419.742188 L 860.515625 462.832031 L 817.425781 462.832031 Z M 817.425781 419.742188 " clip-rule="nonzero"/></clipPath><clipPath id="9d8739ab0c"><path d="M 838.96875 419.742188 C 827.070312 419.742188 817.425781 429.386719 817.425781 441.285156 C 817.425781 453.183594 827.070312 462.832031 838.96875 462.832031 C 850.867188 462.832031 860.515625 453.183594 860.515625 441.285156 C 860.515625 429.386719 850.867188 419.742188 838.96875 419.742188 Z M 838.96875 419.742188 " clip-rule="nonzero"/></clipPath><clipPath id="4341747f83"><path d="M 870.859375 419.742188 L 913.949219 419.742188 L 913.949219 462.832031 L 870.859375 462.832031 Z M 870.859375 419.742188 " clip-rule="nonzero"/></clipPath><clipPath id="7dc2f4443c"><path d="M 892.402344 419.742188 C 880.503906 419.742188 870.859375 429.386719 870.859375 441.285156 C 870.859375 453.183594 880.503906 462.832031 892.402344 462.832031 C 904.300781 462.832031 913.949219 453.183594 913.949219 441.285156 C 913.949219 429.386719 904.300781 419.742188 892.402344 419.742188 Z M 892.402344 419.742188 " clip-rule="nonzero"/></clipPath><clipPath id="332978671e"><path d="M 924.292969 419.742188 L 967.382812 419.742188 L 967.382812 462.832031 L 924.292969 462.832031 Z M 924.292969 419.742188 " clip-rule="nonzero"/></clipPath><clipPath id="0be809623a"><path d="M 945.835938 419.742188 C 933.9375 419.742188 924.292969 429.386719 924.292969 441.285156 C 924.292969 453.183594 933.9375 462.832031 945.835938 462.832031 C 957.734375 462.832031 967.382812 453.183594 967.382812 441.285156 C 967.382812 429.386719 957.734375 419.742188 945.835938 419.742188 Z M 945.835938 419.742188 " clip-rule="nonzero"/></clipPath><clipPath id="66b3c0f423"><path d="M 977.726562 419.742188 L 1020.816406 419.742188 L 1020.816406 462.832031 L 977.726562 462.832031 Z M 977.726562 419.742188 " clip-rule="nonzero"/></clipPath><clipPath id="b21e2092a4"><path d="M 999.269531 419.742188 C 987.371094 419.742188 977.726562 429.386719 977.726562 441.285156 C 977.726562 453.183594 987.371094 462.832031 999.269531 462.832031 C 1011.167969 462.832031 1020.816406 453.183594 1020.816406 441.285156 C 1020.816406 429.386719 1011.167969 419.742188 999.269531 419.742188 Z M 999.269531 419.742188 " clip-rule="nonzero"/></clipPath><clipPath id="d939cff478"><path d="M 1031.160156 419.742188 L 1074.25 419.742188 L 1074.25 462.832031 L 1031.160156 462.832031 Z M 1031.160156 419.742188 " clip-rule="nonzero"/></clipPath><clipPath id="bfb3da968d"><path d="M 1052.703125 419.742188 C 1040.804688 419.742188 1031.160156 429.386719 1031.160156 441.285156 C 1031.160156 453.183594 1040.804688 462.832031 1052.703125 462.832031 C 1064.601562 462.832031 1074.25 453.183594 1074.25 441.285156 C 1074.25 429.386719 1064.601562 419.742188 1052.703125 419.742188 Z M 1052.703125 419.742188 " clip-rule="nonzero"/></clipPath><clipPath id="fd09399772"><path d="M 69.351562 366.328125 L 112.4375 366.328125 L 112.4375 409.417969 L 69.351562 409.417969 Z M 69.351562 366.328125 " clip-rule="nonzero"/></clipPath><clipPath id="b40bd18341"><path d="M 90.894531 366.328125 C 78.996094 366.328125 69.351562 375.976562 69.351562 387.875 C 69.351562 399.773438 78.996094 409.417969 90.894531 409.417969 C 102.792969 409.417969 112.4375 399.773438 112.4375 387.875 C 112.4375 375.976562 102.792969 366.328125 90.894531 366.328125 Z M 90.894531 366.328125 " clip-rule="nonzero"/></clipPath><clipPath id="f5534cd5d9"><path d="M 122.785156 366.328125 L 165.871094 366.328125 L 165.871094 409.417969 L 122.785156 409.417969 Z M 122.785156 366.328125 " clip-rule="nonzero"/></clipPath><clipPath id="5b57dbbdcd"><path d="M 144.328125 366.328125 C 132.429688 366.328125 122.785156 375.976562 122.785156 387.875 C 122.785156 399.773438 132.429688 409.417969 144.328125 409.417969 C 156.226562 409.417969 165.871094 399.773438 165.871094 387.875 C 165.871094 375.976562 156.226562 366.328125 144.328125 366.328125 Z M 144.328125 366.328125 " clip-rule="nonzero"/></clipPath><clipPath id="600645cf0f"><path d="M 176.21875 366.328125 L 219.308594 366.328125 L 219.308594 409.417969 L 176.21875 409.417969 Z M 176.21875 366.328125 " clip-rule="nonzero"/></clipPath><clipPath id="c407c2087e"><path d="M 197.761719 366.328125 C 185.863281 366.328125 176.21875 375.976562 176.21875 387.875 C 176.21875 399.773438 185.863281 409.417969 197.761719 409.417969 C 209.660156 409.417969 219.308594 399.773438 219.308594 387.875 C 219.308594 375.976562 209.660156 366.328125 197.761719 366.328125 Z M 197.761719 366.328125 " clip-rule="nonzero"/></clipPath><clipPath id="b0dbbf0b8a"><path d="M 229.652344 366.328125 L 272.742188 366.328125 L 272.742188 409.417969 L 229.652344 409.417969 Z M 229.652344 366.328125 " clip-rule="nonzero"/></clipPath><clipPath id="0f66c8a061"><path d="M 251.195312 366.328125 C 239.296875 366.328125 229.652344 375.976562 229.652344 387.875 C 229.652344 399.773438 239.296875 409.417969 251.195312 409.417969 C 263.09375 409.417969 272.742188 399.773438 272.742188 387.875 C 272.742188 375.976562 263.09375 366.328125 251.195312 366.328125 Z M 251.195312 366.328125 " clip-rule="nonzero"/></clipPath><clipPath id="f22ad9a31b"><path d="M 283.085938 366.328125 L 326.175781 366.328125 L 326.175781 409.417969 L 283.085938 409.417969 Z M 283.085938 366.328125 " clip-rule="nonzero"/></clipPath><clipPath id="c08a61d750"><path d="M 304.628906 366.328125 C 292.730469 366.328125 283.085938 375.976562 283.085938 387.875 C 283.085938 399.773438 292.730469 409.417969 304.628906 409.417969 C 316.527344 409.417969 326.175781 399.773438 326.175781 387.875 C 326.175781 375.976562 316.527344 366.328125 304.628906 366.328125 Z M 304.628906 366.328125 " clip-rule="nonzero"/></clipPath><clipPath id="f8d7f5b659"><path d="M 336.519531 366.328125 L 379.609375 366.328125 L 379.609375 409.417969 L 336.519531 409.417969 Z M 336.519531 366.328125 " clip-rule="nonzero"/></clipPath><clipPath id="e79cb30d91"><path d="M 358.0625 366.328125 C 346.164062 366.328125 336.519531 375.976562 336.519531 387.875 C 336.519531 399.773438 346.164062 409.417969 358.0625 409.417969 C 369.960938 409.417969 379.609375 399.773438 379.609375 387.875 C 379.609375 375.976562 369.960938 366.328125 358.0625 366.328125 Z M 358.0625 366.328125 " clip-rule="nonzero"/></clipPath><clipPath id="0546b4d07d"><path d="M 389.953125 366.328125 L 433.042969 366.328125 L 433.042969 409.417969 L 389.953125 409.417969 Z M 389.953125 366.328125 " clip-rule="nonzero"/></clipPath><clipPath id="d5189a147e"><path d="M 411.496094 366.328125 C 399.597656 366.328125 389.953125 375.976562 389.953125 387.875 C 389.953125 399.773438 399.597656 409.417969 411.496094 409.417969 C 423.398438 409.417969 433.042969 399.773438 433.042969 387.875 C 433.042969 375.976562 423.398438 366.328125 411.496094 366.328125 Z M 411.496094 366.328125 " clip-rule="nonzero"/></clipPath><clipPath id="23b24060b4"><path d="M 443.386719 366.328125 L 486.476562 366.328125 L 486.476562 409.417969 L 443.386719 409.417969 Z M 443.386719 366.328125 " clip-rule="nonzero"/></clipPath><clipPath id="cbdea4f1df"><path d="M 464.933594 366.328125 C 453.03125 366.328125 443.386719 375.976562 443.386719 387.875 C 443.386719 399.773438 453.03125 409.417969 464.933594 409.417969 C 476.832031 409.417969 486.476562 399.773438 486.476562 387.875 C 486.476562 375.976562 476.832031 366.328125 464.933594 366.328125 Z M 464.933594 366.328125 " clip-rule="nonzero"/></clipPath><clipPath id="5686fb4644"><path d="M 496.820312 366.328125 L 539.910156 366.328125 L 539.910156 409.417969 L 496.820312 409.417969 Z M 496.820312 366.328125 " clip-rule="nonzero"/></clipPath><clipPath id="9134c35022"><path d="M 518.367188 366.328125 C 506.46875 366.328125 496.820312 375.976562 496.820312 387.875 C 496.820312 399.773438 506.46875 409.417969 518.367188 409.417969 C 530.265625 409.417969 539.910156 399.773438 539.910156 387.875 C 539.910156 375.976562 530.265625 366.328125 518.367188 366.328125 Z M 518.367188 366.328125 " clip-rule="nonzero"/></clipPath><clipPath id="e5b25af111"><path d="M 550.253906 366.328125 L 593.34375 366.328125 L 593.34375 409.417969 L 550.253906 409.417969 Z M 550.253906 366.328125 " clip-rule="nonzero"/></clipPath><clipPath id="6bff9cf76d"><path d="M 571.800781 366.328125 C 559.902344 366.328125 550.253906 375.976562 550.253906 387.875 C 550.253906 399.773438 559.902344 409.417969 571.800781 409.417969 C 583.699219 409.417969 593.34375 399.773438 593.34375 387.875 C 593.34375 375.976562 583.699219 366.328125 571.800781 366.328125 Z M 571.800781 366.328125 " clip-rule="nonzero"/></clipPath><clipPath id="efe80d2f6d"><path d="M 603.6875 366.328125 L 646.777344 366.328125 L 646.777344 409.417969 L 603.6875 409.417969 Z M 603.6875 366.328125 " clip-rule="nonzero"/></clipPath><clipPath id="307c4c8413"><path d="M 625.234375 366.328125 C 613.335938 366.328125 603.6875 375.976562 603.6875 387.875 C 603.6875 399.773438 613.335938 409.417969 625.234375 409.417969 C 637.132812 409.417969 646.777344 399.773438 646.777344 387.875 C 646.777344 375.976562 637.132812 366.328125 625.234375 366.328125 Z M 625.234375 366.328125 " clip-rule="nonzero"/></clipPath><clipPath id="92e331502a"><path d="M 657.121094 366.328125 L 700.210938 366.328125 L 700.210938 409.417969 L 657.121094 409.417969 Z M 657.121094 366.328125 " clip-rule="nonzero"/></clipPath><clipPath id="c3e6d516fa"><path d="M 678.667969 366.328125 C 666.769531 366.328125 657.121094 375.976562 657.121094 387.875 C 657.121094 399.773438 666.769531 409.417969 678.667969 409.417969 C 690.566406 409.417969 700.210938 399.773438 700.210938 387.875 C 700.210938 375.976562 690.566406 366.328125 678.667969 366.328125 Z M 678.667969 366.328125 " clip-rule="nonzero"/></clipPath><clipPath id="4648396e79"><path d="M 710.554688 366.328125 L 753.644531 366.328125 L 753.644531 409.417969 L 710.554688 409.417969 Z M 710.554688 366.328125 " clip-rule="nonzero"/></clipPath><clipPath id="7e3b5fdd30"><path d="M 732.101562 366.328125 C 720.203125 366.328125 710.554688 375.976562 710.554688 387.875 C 710.554688 399.773438 720.203125 409.417969 732.101562 409.417969 C 744 409.417969 753.644531 399.773438 753.644531 387.875 C 753.644531 375.976562 744 366.328125 732.101562 366.328125 Z M 732.101562 366.328125 " clip-rule="nonzero"/></clipPath><clipPath id="cab30831d1"><path d="M 763.992188 366.328125 L 807.078125 366.328125 L 807.078125 409.417969 L 763.992188 409.417969 Z M 763.992188 366.328125 " clip-rule="nonzero"/></clipPath><clipPath id="bae50a8b8f"><path d="M 785.535156 366.328125 C 773.636719 366.328125 763.992188 375.976562 763.992188 387.875 C 763.992188 399.773438 773.636719 409.417969 785.535156 409.417969 C 797.433594 409.417969 807.078125 399.773438 807.078125 387.875 C 807.078125 375.976562 797.433594 366.328125 785.535156 366.328125 Z M 785.535156 366.328125 " clip-rule="nonzero"/></clipPath><clipPath id="f55bef8249"><path d="M 817.425781 366.328125 L 860.515625 366.328125 L 860.515625 409.417969 L 817.425781 409.417969 Z M 817.425781 366.328125 " clip-rule="nonzero"/></clipPath><clipPath id="107c06ac16"><path d="M 838.96875 366.328125 C 827.070312 366.328125 817.425781 375.976562 817.425781 387.875 C 817.425781 399.773438 827.070312 409.417969 838.96875 409.417969 C 850.867188 409.417969 860.515625 399.773438 860.515625 387.875 C 860.515625 375.976562 850.867188 366.328125 838.96875 366.328125 Z M 838.96875 366.328125 " clip-rule="nonzero"/></clipPath><clipPath id="d84a826ee7"><path d="M 870.859375 366.328125 L 913.949219 366.328125 L 913.949219 409.417969 L 870.859375 409.417969 Z M 870.859375 366.328125 " clip-rule="nonzero"/></clipPath><clipPath id="672fe5a675"><path d="M 892.402344 366.328125 C 880.503906 366.328125 870.859375 375.976562 870.859375 387.875 C 870.859375 399.773438 880.503906 409.417969 892.402344 409.417969 C 904.300781 409.417969 913.949219 399.773438 913.949219 387.875 C 913.949219 375.976562 904.300781 366.328125 892.402344 366.328125 Z M 892.402344 366.328125 " clip-rule="nonzero"/></clipPath><clipPath id="480ae02c19"><path d="M 924.292969 366.328125 L 967.382812 366.328125 L 967.382812 409.417969 L 924.292969 409.417969 Z M 924.292969 366.328125 " clip-rule="nonzero"/></clipPath><clipPath id="8beabf726f"><path d="M 945.835938 366.328125 C 933.9375 366.328125 924.292969 375.976562 924.292969 387.875 C 924.292969 399.773438 933.9375 409.417969 945.835938 409.417969 C 957.734375 409.417969 967.382812 399.773438 967.382812 387.875 C 967.382812 375.976562 957.734375 366.328125 945.835938 366.328125 Z M 945.835938 366.328125 " clip-rule="nonzero"/></clipPath><clipPath id="74d5b852dc"><path d="M 977.726562 366.328125 L 1020.816406 366.328125 L 1020.816406 409.417969 L 977.726562 409.417969 Z M 977.726562 366.328125 " clip-rule="nonzero"/></clipPath><clipPath id="f35b344d28"><path d="M 999.269531 366.328125 C 987.371094 366.328125 977.726562 375.976562 977.726562 387.875 C 977.726562 399.773438 987.371094 409.417969 999.269531 409.417969 C 1011.167969 409.417969 1020.816406 399.773438 1020.816406 387.875 C 1020.816406 375.976562 1011.167969 366.328125 999.269531 366.328125 Z M 999.269531 366.328125 " clip-rule="nonzero"/></clipPath><clipPath id="736af8fd14"><path d="M 69.351562 312.917969 L 112.4375 312.917969 L 112.4375 356.007812 L 69.351562 356.007812 Z M 69.351562 312.917969 " clip-rule="nonzero"/></clipPath><clipPath id="57b294c2fc"><path d="M 90.894531 312.917969 C 78.996094 312.917969 69.351562 322.5625 69.351562 334.460938 C 69.351562 346.363281 78.996094 356.007812 90.894531 356.007812 C 102.792969 356.007812 112.4375 346.363281 112.4375 334.460938 C 112.4375 322.5625 102.792969 312.917969 90.894531 312.917969 Z M 90.894531 312.917969 " clip-rule="nonzero"/></clipPath><clipPath id="c7f0dd136d"><path d="M 122.785156 312.917969 L 165.871094 312.917969 L 165.871094 356.007812 L 122.785156 356.007812 Z M 122.785156 312.917969 " clip-rule="nonzero"/></clipPath><clipPath id="75260a546b"><path d="M 144.328125 312.917969 C 132.429688 312.917969 122.785156 322.5625 122.785156 334.460938 C 122.785156 346.363281 132.429688 356.007812 144.328125 356.007812 C 156.226562 356.007812 165.871094 346.363281 165.871094 334.460938 C 165.871094 322.5625 156.226562 312.917969 144.328125 312.917969 Z M 144.328125 312.917969 " clip-rule="nonzero"/></clipPath><clipPath id="c6b0cb6e4e"><path d="M 176.21875 312.917969 L 219.308594 312.917969 L 219.308594 356.007812 L 176.21875 356.007812 Z M 176.21875 312.917969 " clip-rule="nonzero"/></clipPath><clipPath id="4e6c6d71bc"><path d="M 197.761719 312.917969 C 185.863281 312.917969 176.21875 322.5625 176.21875 334.460938 C 176.21875 346.363281 185.863281 356.007812 197.761719 356.007812 C 209.660156 356.007812 219.308594 346.363281 219.308594 334.460938 C 219.308594 322.5625 209.660156 312.917969 197.761719 312.917969 Z M 197.761719 312.917969 " clip-rule="nonzero"/></clipPath><clipPath id="0ddf75e96d"><path d="M 229.652344 312.917969 L 272.742188 312.917969 L 272.742188 356.007812 L 229.652344 356.007812 Z M 229.652344 312.917969 " clip-rule="nonzero"/></clipPath><clipPath id="90d7e7b333"><path d="M 251.195312 312.917969 C 239.296875 312.917969 229.652344 322.5625 229.652344 334.460938 C 229.652344 346.363281 239.296875 356.007812 251.195312 356.007812 C 263.09375 356.007812 272.742188 346.363281 272.742188 334.460938 C 272.742188 322.5625 263.09375 312.917969 251.195312 312.917969 Z M 251.195312 312.917969 " clip-rule="nonzero"/></clipPath><clipPath id="d99677adc1"><path d="M 283.085938 312.917969 L 326.175781 312.917969 L 326.175781 356.007812 L 283.085938 356.007812 Z M 283.085938 312.917969 " clip-rule="nonzero"/></clipPath><clipPath id="70e6777425"><path d="M 304.628906 312.917969 C 292.730469 312.917969 283.085938 322.5625 283.085938 334.460938 C 283.085938 346.363281 292.730469 356.007812 304.628906 356.007812 C 316.527344 356.007812 326.175781 346.363281 326.175781 334.460938 C 326.175781 322.5625 316.527344 312.917969 304.628906 312.917969 Z M 304.628906 312.917969 " clip-rule="nonzero"/></clipPath><clipPath id="14e53eaaa1"><path d="M 336.519531 312.917969 L 379.609375 312.917969 L 379.609375 356.007812 L 336.519531 356.007812 Z M 336.519531 312.917969 " clip-rule="nonzero"/></clipPath><clipPath id="8f0ffcb49d"><path d="M 358.0625 312.917969 C 346.164062 312.917969 336.519531 322.5625 336.519531 334.460938 C 336.519531 346.363281 346.164062 356.007812 358.0625 356.007812 C 369.960938 356.007812 379.609375 346.363281 379.609375 334.460938 C 379.609375 322.5625 369.960938 312.917969 358.0625 312.917969 Z M 358.0625 312.917969 " clip-rule="nonzero"/></clipPath><clipPath id="3aaa3aaec0"><path d="M 389.953125 312.917969 L 433.042969 312.917969 L 433.042969 356.007812 L 389.953125 356.007812 Z M 389.953125 312.917969 " clip-rule="nonzero"/></clipPath><clipPath id="9990ac8a5c"><path d="M 411.496094 312.917969 C 399.597656 312.917969 389.953125 322.5625 389.953125 334.460938 C 389.953125 346.363281 399.597656 356.007812 411.496094 356.007812 C 423.398438 356.007812 433.042969 346.363281 433.042969 334.460938 C 433.042969 322.5625 423.398438 312.917969 411.496094 312.917969 Z M 411.496094 312.917969 " clip-rule="nonzero"/></clipPath><clipPath id="05075de9e9"><path d="M 443.386719 312.917969 L 486.476562 312.917969 L 486.476562 356.007812 L 443.386719 356.007812 Z M 443.386719 312.917969 " clip-rule="nonzero"/></clipPath><clipPath id="141130e40f"><path d="M 464.933594 312.917969 C 453.03125 312.917969 443.386719 322.5625 443.386719 334.460938 C 443.386719 346.363281 453.03125 356.007812 464.933594 356.007812 C 476.832031 356.007812 486.476562 346.363281 486.476562 334.460938 C 486.476562 322.5625 476.832031 312.917969 464.933594 312.917969 Z M 464.933594 312.917969 " clip-rule="nonzero"/></clipPath><clipPath id="d24705fc5c"><path d="M 496.820312 312.917969 L 539.910156 312.917969 L 539.910156 356.007812 L 496.820312 356.007812 Z M 496.820312 312.917969 " clip-rule="nonzero"/></clipPath><clipPath id="0a7eab90c1"><path d="M 518.367188 312.917969 C 506.46875 312.917969 496.820312 322.5625 496.820312 334.460938 C 496.820312 346.363281 506.46875 356.007812 518.367188 356.007812 C 530.265625 356.007812 539.910156 346.363281 539.910156 334.460938 C 539.910156 322.5625 530.265625 312.917969 518.367188 312.917969 Z M 518.367188 312.917969 " clip-rule="nonzero"/></clipPath><clipPath id="ab3bac79d1"><path d="M 550.253906 312.917969 L 593.34375 312.917969 L 593.34375 356.007812 L 550.253906 356.007812 Z M 550.253906 312.917969 " clip-rule="nonzero"/></clipPath><clipPath id="a06024501d"><path d="M 571.800781 312.917969 C 559.902344 312.917969 550.253906 322.5625 550.253906 334.460938 C 550.253906 346.363281 559.902344 356.007812 571.800781 356.007812 C 583.699219 356.007812 593.34375 346.363281 593.34375 334.460938 C 593.34375 322.5625 583.699219 312.917969 571.800781 312.917969 Z M 571.800781 312.917969 " clip-rule="nonzero"/></clipPath><clipPath id="b09fb9cdbb"><path d="M 710.554688 312.917969 L 753.644531 312.917969 L 753.644531 356.007812 L 710.554688 356.007812 Z M 710.554688 312.917969 " clip-rule="nonzero"/></clipPath><clipPath id="c87f7639be"><path d="M 732.101562 312.917969 C 720.203125 312.917969 710.554688 322.5625 710.554688 334.460938 C 710.554688 346.363281 720.203125 356.007812 732.101562 356.007812 C 744 356.007812 753.644531 346.363281 753.644531 334.460938 C 753.644531 322.5625 744 312.917969 732.101562 312.917969 Z M 732.101562 312.917969 " clip-rule="nonzero"/></clipPath><clipPath id="c641f7f8d0"><path d="M 763.992188 312.917969 L 807.078125 312.917969 L 807.078125 356.007812 L 763.992188 356.007812 Z M 763.992188 312.917969 " clip-rule="nonzero"/></clipPath><clipPath id="1b4c37fe8b"><path d="M 785.535156 312.917969 C 773.636719 312.917969 763.992188 322.5625 763.992188 334.460938 C 763.992188 346.363281 773.636719 356.007812 785.535156 356.007812 C 797.433594 356.007812 807.078125 346.363281 807.078125 334.460938 C 807.078125 322.5625 797.433594 312.917969 785.535156 312.917969 Z M 785.535156 312.917969 " clip-rule="nonzero"/></clipPath><clipPath id="d83a512015"><path d="M 817.425781 312.917969 L 860.515625 312.917969 L 860.515625 356.007812 L 817.425781 356.007812 Z M 817.425781 312.917969 " clip-rule="nonzero"/></clipPath><clipPath id="b6f4e1fda2"><path d="M 838.96875 312.917969 C 827.070312 312.917969 817.425781 322.5625 817.425781 334.460938 C 817.425781 346.363281 827.070312 356.007812 838.96875 356.007812 C 850.867188 356.007812 860.515625 346.363281 860.515625 334.460938 C 860.515625 322.5625 850.867188 312.917969 838.96875 312.917969 Z M 838.96875 312.917969 " clip-rule="nonzero"/></clipPath><clipPath id="5190a5c99b"><path d="M 896.652344 312.746094 L 939.742188 312.746094 L 939.742188 355.835938 L 896.652344 355.835938 Z M 896.652344 312.746094 " clip-rule="nonzero"/></clipPath><clipPath id="27c3ac2c4b"><path d="M 918.199219 312.746094 C 906.300781 312.746094 896.652344 322.390625 896.652344 334.289062 C 896.652344 346.1875 906.300781 355.835938 918.199219 355.835938 C 930.097656 355.835938 939.742188 346.1875 939.742188 334.289062 C 939.742188 322.390625 930.097656 312.746094 918.199219 312.746094 Z M 918.199219 312.746094 " clip-rule="nonzero"/></clipPath><clipPath id="064925b52c"><path d="M 122.785156 259.507812 L 165.871094 259.507812 L 165.871094 302.597656 L 122.785156 302.597656 Z M 122.785156 259.507812 " clip-rule="nonzero"/></clipPath><clipPath id="263bb92439"><path d="M 144.328125 259.507812 C 132.429688 259.507812 122.785156 269.152344 122.785156 281.050781 C 122.785156 292.949219 132.429688 302.597656 144.328125 302.597656 C 156.226562 302.597656 165.871094 292.949219 165.871094 281.050781 C 165.871094 269.152344 156.226562 259.507812 144.328125 259.507812 Z M 144.328125 259.507812 " clip-rule="nonzero"/></clipPath><clipPath id="fc422a788b"><path d="M 176.21875 259.507812 L 219.308594 259.507812 L 219.308594 302.597656 L 176.21875 302.597656 Z M 176.21875 259.507812 " clip-rule="nonzero"/></clipPath><clipPath id="60ea08ef09"><path d="M 197.761719 259.507812 C 185.863281 259.507812 176.21875 269.152344 176.21875 281.050781 C 176.21875 292.949219 185.863281 302.597656 197.761719 302.597656 C 209.660156 302.597656 219.308594 292.949219 219.308594 281.050781 C 219.308594 269.152344 209.660156 259.507812 197.761719 259.507812 Z M 197.761719 259.507812 " clip-rule="nonzero"/></clipPath><clipPath id="cef425be9e"><path d="M 229.652344 259.507812 L 272.742188 259.507812 L 272.742188 302.597656 L 229.652344 302.597656 Z M 229.652344 259.507812 " clip-rule="nonzero"/></clipPath><clipPath id="909fdbe569"><path d="M 251.195312 259.507812 C 239.296875 259.507812 229.652344 269.152344 229.652344 281.050781 C 229.652344 292.949219 239.296875 302.597656 251.195312 302.597656 C 263.09375 302.597656 272.742188 292.949219 272.742188 281.050781 C 272.742188 269.152344 263.09375 259.507812 251.195312 259.507812 Z M 251.195312 259.507812 " clip-rule="nonzero"/></clipPath><clipPath id="8f3cd257f0"><path d="M 283.085938 259.507812 L 326.175781 259.507812 L 326.175781 302.597656 L 283.085938 302.597656 Z M 283.085938 259.507812 " clip-rule="nonzero"/></clipPath><clipPath id="5396af4e33"><path d="M 304.628906 259.507812 C 292.730469 259.507812 283.085938 269.152344 283.085938 281.050781 C 283.085938 292.949219 292.730469 302.597656 304.628906 302.597656 C 316.527344 302.597656 326.175781 292.949219 326.175781 281.050781 C 326.175781 269.152344 316.527344 259.507812 304.628906 259.507812 Z M 304.628906 259.507812 " clip-rule="nonzero"/></clipPath><clipPath id="85a9b7b79a"><path d="M 336.519531 259.507812 L 379.609375 259.507812 L 379.609375 302.597656 L 336.519531 302.597656 Z M 336.519531 259.507812 " clip-rule="nonzero"/></clipPath><clipPath id="10b44ff124"><path d="M 358.0625 259.507812 C 346.164062 259.507812 336.519531 269.152344 336.519531 281.050781 C 336.519531 292.949219 346.164062 302.597656 358.0625 302.597656 C 369.960938 302.597656 379.609375 292.949219 379.609375 281.050781 C 379.609375 269.152344 369.960938 259.507812 358.0625 259.507812 Z M 358.0625 259.507812 " clip-rule="nonzero"/></clipPath><clipPath id="2c62d26c3d"><path d="M 389.953125 259.507812 L 433.042969 259.507812 L 433.042969 302.597656 L 389.953125 302.597656 Z M 389.953125 259.507812 " clip-rule="nonzero"/></clipPath><clipPath id="b0723d9520"><path d="M 411.496094 259.507812 C 399.597656 259.507812 389.953125 269.152344 389.953125 281.050781 C 389.953125 292.949219 399.597656 302.597656 411.496094 302.597656 C 423.398438 302.597656 433.042969 292.949219 433.042969 281.050781 C 433.042969 269.152344 423.398438 259.507812 411.496094 259.507812 Z M 411.496094 259.507812 " clip-rule="nonzero"/></clipPath><clipPath id="aef63fe106"><path d="M 496.820312 259.507812 L 539.910156 259.507812 L 539.910156 302.597656 L 496.820312 302.597656 Z M 496.820312 259.507812 " clip-rule="nonzero"/></clipPath><clipPath id="addbc030c8"><path d="M 518.367188 259.507812 C 506.46875 259.507812 496.820312 269.152344 496.820312 281.050781 C 496.820312 292.949219 506.46875 302.597656 518.367188 302.597656 C 530.265625 302.597656 539.910156 292.949219 539.910156 281.050781 C 539.910156 269.152344 530.265625 259.507812 518.367188 259.507812 Z M 518.367188 259.507812 " clip-rule="nonzero"/></clipPath><clipPath id="bc0cbff89e"><path d="M 763.992188 259.507812 L 807.078125 259.507812 L 807.078125 302.597656 L 763.992188 302.597656 Z M 763.992188 259.507812 " clip-rule="nonzero"/></clipPath><clipPath id="1a43291ed3"><path d="M 785.535156 259.507812 C 773.636719 259.507812 763.992188 269.152344 763.992188 281.050781 C 763.992188 292.949219 773.636719 302.597656 785.535156 302.597656 C 797.433594 302.597656 807.078125 292.949219 807.078125 281.050781 C 807.078125 269.152344 797.433594 259.507812 785.535156 259.507812 Z M 785.535156 259.507812 " clip-rule="nonzero"/></clipPath><clipPath id="850346b1f8"><path d="M 817.425781 259.507812 L 860.515625 259.507812 L 860.515625 302.597656 L 817.425781 302.597656 Z M 817.425781 259.507812 " clip-rule="nonzero"/></clipPath><clipPath id="e012e39ed0"><path d="M 838.96875 259.507812 C 827.070312 259.507812 817.425781 269.152344 817.425781 281.050781 C 817.425781 292.949219 827.070312 302.597656 838.96875 302.597656 C 850.867188 302.597656 860.515625 292.949219 860.515625 281.050781 C 860.515625 269.152344 850.867188 259.507812 838.96875 259.507812 Z M 838.96875 259.507812 " clip-rule="nonzero"/></clipPath><clipPath id="af1ecc63b0"><path d="M 122.785156 206.09375 L 165.871094 206.09375 L 165.871094 249.183594 L 122.785156 249.183594 Z M 122.785156 206.09375 " clip-rule="nonzero"/></clipPath><clipPath id="6c8b6c6a3c"><path d="M 144.328125 206.09375 C 132.429688 206.09375 122.785156 215.742188 122.785156 227.640625 C 122.785156 239.539062 132.429688 249.183594 144.328125 249.183594 C 156.226562 249.183594 165.871094 239.539062 165.871094 227.640625 C 165.871094 215.742188 156.226562 206.09375 144.328125 206.09375 Z M 144.328125 206.09375 " clip-rule="nonzero"/></clipPath><clipPath id="57069c5a7b"><path d="M 176.21875 206.09375 L 219.308594 206.09375 L 219.308594 249.183594 L 176.21875 249.183594 Z M 176.21875 206.09375 " clip-rule="nonzero"/></clipPath><clipPath id="b6438a0aa7"><path d="M 197.761719 206.09375 C 185.863281 206.09375 176.21875 215.742188 176.21875 227.640625 C 176.21875 239.539062 185.863281 249.183594 197.761719 249.183594 C 209.660156 249.183594 219.308594 239.539062 219.308594 227.640625 C 219.308594 215.742188 209.660156 206.09375 197.761719 206.09375 Z M 197.761719 206.09375 " clip-rule="nonzero"/></clipPath><clipPath id="b0de43e76d"><path d="M 283.085938 206.09375 L 326.175781 206.09375 L 326.175781 249.183594 L 283.085938 249.183594 Z M 283.085938 206.09375 " clip-rule="nonzero"/></clipPath><clipPath id="462b50940b"><path d="M 304.628906 206.09375 C 292.730469 206.09375 283.085938 215.742188 283.085938 227.640625 C 283.085938 239.539062 292.730469 249.183594 304.628906 249.183594 C 316.527344 249.183594 326.175781 239.539062 326.175781 227.640625 C 326.175781 215.742188 316.527344 206.09375 304.628906 206.09375 Z M 304.628906 206.09375 " clip-rule="nonzero"/></clipPath><clipPath id="3cdb8bcbcf"><path d="M 336.519531 206.09375 L 379.609375 206.09375 L 379.609375 249.183594 L 336.519531 249.183594 Z M 336.519531 206.09375 " clip-rule="nonzero"/></clipPath><clipPath id="100cc05cbf"><path d="M 358.0625 206.09375 C 346.164062 206.09375 336.519531 215.742188 336.519531 227.640625 C 336.519531 239.539062 346.164062 249.183594 358.0625 249.183594 C 369.960938 249.183594 379.609375 239.539062 379.609375 227.640625 C 379.609375 215.742188 369.960938 206.09375 358.0625 206.09375 Z M 358.0625 206.09375 " clip-rule="nonzero"/></clipPath><clipPath id="9b121b7304"><path d="M 389.953125 206.09375 L 433.042969 206.09375 L 433.042969 249.183594 L 389.953125 249.183594 Z M 389.953125 206.09375 " clip-rule="nonzero"/></clipPath><clipPath id="78e038634a"><path d="M 411.496094 206.09375 C 399.597656 206.09375 389.953125 215.742188 389.953125 227.640625 C 389.953125 239.539062 399.597656 249.183594 411.496094 249.183594 C 423.398438 249.183594 433.042969 239.539062 433.042969 227.640625 C 433.042969 215.742188 423.398438 206.09375 411.496094 206.09375 Z M 411.496094 206.09375 " clip-rule="nonzero"/></clipPath><clipPath id="513631c5a5"><path d="M 122.785156 152.683594 L 165.871094 152.683594 L 165.871094 195.773438 L 122.785156 195.773438 Z M 122.785156 152.683594 " clip-rule="nonzero"/></clipPath><clipPath id="9c214f0dd3"><path d="M 144.328125 152.683594 C 132.429688 152.683594 122.785156 162.328125 122.785156 174.226562 C 122.785156 186.125 132.429688 195.773438 144.328125 195.773438 C 156.226562 195.773438 165.871094 186.125 165.871094 174.226562 C 165.871094 162.328125 156.226562 152.683594 144.328125 152.683594 Z M 144.328125 152.683594 " clip-rule="nonzero"/></clipPath><clipPath id="12f6430626"><path d="M 283.085938 152.683594 L 326.175781 152.683594 L 326.175781 195.773438 L 283.085938 195.773438 Z M 283.085938 152.683594 " clip-rule="nonzero"/></clipPath><clipPath id="0aa50f8c1d"><path d="M 304.628906 152.683594 C 292.730469 152.683594 283.085938 162.328125 283.085938 174.226562 C 283.085938 186.125 292.730469 195.773438 304.628906 195.773438 C 316.527344 195.773438 326.175781 186.125 326.175781 174.226562 C 326.175781 162.328125 316.527344 152.683594 304.628906 152.683594 Z M 304.628906 152.683594 " clip-rule="nonzero"/></clipPath><clipPath id="542ac2adbc"><path d="M 389.953125 152.683594 L 433.042969 152.683594 L 433.042969 195.773438 L 389.953125 195.773438 Z M 389.953125 152.683594 " clip-rule="nonzero"/></clipPath><clipPath id="ac4a91b7ae"><path d="M 411.496094 152.683594 C 399.597656 152.683594 389.953125 162.328125 389.953125 174.226562 C 389.953125 186.125 399.597656 195.773438 411.496094 195.773438 C 423.398438 195.773438 433.042969 186.125 433.042969 174.226562 C 433.042969 162.328125 423.398438 152.683594 411.496094 152.683594 Z M 411.496094 152.683594 " clip-rule="nonzero"/></clipPath><clipPath id="a7e1c8305d"><path d="M 122.785156 99.273438 L 165.871094 99.273438 L 165.871094 142.359375 L 122.785156 142.359375 Z M 122.785156 99.273438 " clip-rule="nonzero"/></clipPath><clipPath id="6bd51be078"><path d="M 144.328125 99.273438 C 132.429688 99.273438 122.785156 108.917969 122.785156 120.816406 C 122.785156 132.714844 132.429688 142.359375 144.328125 142.359375 C 156.226562 142.359375 165.871094 132.714844 165.871094 120.816406 C 165.871094 108.917969 156.226562 99.273438 144.328125 99.273438 Z M 144.328125 99.273438 " clip-rule="nonzero"/></clipPath><clipPath id="e79e0bb0fc"><path d="M 389.953125 99.273438 L 433.042969 99.273438 L 433.042969 142.359375 L 389.953125 142.359375 Z M 389.953125 99.273438 " clip-rule="nonzero"/></clipPath><clipPath id="4f2a73625e"><path d="M 411.496094 99.273438 C 399.597656 99.273438 389.953125 108.917969 389.953125 120.816406 C 389.953125 132.714844 399.597656 142.359375 411.496094 142.359375 C 423.398438 142.359375 433.042969 132.714844 433.042969 120.816406 C 433.042969 108.917969 423.398438 99.273438 411.496094 99.273438 Z M 411.496094 99.273438 " clip-rule="nonzero"/></clipPath><clipPath id="8d391b2bfb"><path d="M 389.953125 45.859375 L 433.042969 45.859375 L 433.042969 88.949219 L 389.953125 88.949219 Z M 389.953125 45.859375 " clip-rule="nonzero"/></clipPath><clipPath id="f5e8f0d94d"><path d="M 411.496094 45.859375 C 399.597656 45.859375 389.953125 55.503906 389.953125 67.40625 C 389.953125 79.304688 399.597656 88.949219 411.496094 88.949219 C 423.398438 88.949219 433.042969 79.304688 433.042969 67.40625 C 433.042969 55.503906 423.398438 45.859375 411.496094 45.859375 Z M 411.496094 45.859375 " clip-rule="nonzero"/></clipPath></defs><g clip-path="url(#27003ead17)"><path fill="#ffffff" d="M 0 0.113281 L 1140.253906 0.113281 L 1140.253906 1034.664062 L 0 1034.664062 Z M 0 0.113281 " fill-opacity="1" fill-rule="nonzero"/></g><g clip-path="url(#68bd96c6a6)"><g clip-path="url(#d145a9b8d9)"><path fill="#000000" d="M 80.347656 802.703125 L 235.183594 802.703125 L 235.183594 979.3125 L 80.347656 979.3125 Z M 80.347656 802.703125 " fill-opacity="1" fill-rule="nonzero"/></g></g><g clip-path="url(#723bf6f652)"><g clip-path="url(#69b2d78394)"><path fill="#000000" d="M 79.289062 503.882812 L 306.914062 503.882812 L 306.914062 761.476562 L 79.289062 761.476562 Z M 79.289062 503.882812 " fill-opacity="1" fill-rule="nonzero"/></g></g><g clip-path="url(#b357d56d8a)"><path fill="#000000" d="M 285.570312 802.707031 L 301.714844 802.707031 L 301.714844 979.3125 L 285.570312 979.3125 Z M 285.570312 802.707031 " fill-opacity="1" fill-rule="nonzero"/></g><g clip-path="url(#ad5e20da26)"><g clip-path="url(#4895b4c5fa)"><path fill="#000000" d="M 352.105469 802.707031 L 479.789062 802.707031 L 479.789062 979.3125 L 352.105469 979.3125 Z M 352.105469 802.707031 " fill-opacity="1" fill-rule="nonzero"/></g></g><g clip-path="url(#03c4b48338)"><g clip-path="url(#0b2d435f76)"><path fill="#000000" d="M 513.714844 785.265625 L 806.898438 785.265625 L 806.898438 996.75 L 513.714844 996.75 Z M 513.714844 785.265625 " fill-opacity="1" fill-rule="nonzero"/></g></g><g clip-path="url(#9fa2e8a39e)"><g clip-path="url(#bda9f89655)"><path fill="#000000" d="M 513.714844 785.265625 L 806.898438 785.265625 L 806.898438 996.75 L 513.714844 996.75 Z M 513.714844 785.265625 " fill-opacity="1" fill-rule="nonzero"/></g></g><g clip-path="url(#ee311635aa)"><g clip-path="url(#41a879748c)"><path fill="#000000" d="M 339.011719 485.320312 L 1082.550781 485.320312 L 1082.550781 780.035156 L 339.011719 780.035156 Z M 339.011719 485.320312 " fill-opacity="1" fill-rule="nonzero"/></g></g><g clip-path="url(#a933e88afc)"><path fill="#000000" d="M 339.011719 485.320312 L 1082.550781 485.320312 L 1082.550781 780.035156 L 339.011719 780.035156 Z M 339.011719 485.320312 " fill-opacity="1" fill-rule="nonzero"/></g><g clip-path="url(#89075dc528)"><g clip-path="url(#03f89bd8ed)"><path fill="#000000" d="M 339.011719 485.320312 L 1082.550781 485.320312 L 1082.550781 780.035156 L 339.011719 780.035156 Z M 339.011719 485.320312 " fill-opacity="1" fill-rule="nonzero"/></g></g><g clip-path="url(#f2073dc64b)"><g clip-path="url(#9e00be38a2)"><path fill="#000000" d="M 339.011719 485.320312 L 1082.550781 485.320312 L 1082.550781 780.035156 L 339.011719 780.035156 Z M 339.011719 485.320312 " fill-opacity="1" fill-rule="nonzero"/></g></g><g clip-path="url(#ecc4caa0b7)"><g clip-path="url(#6fc955ac2a)"><path fill="#000000" d="M 812.867188 787.710938 L 1082.816406 787.710938 L 1082.816406 994.304688 L 812.867188 994.304688 Z M 812.867188 787.710938 " fill-opacity="1" fill-rule="nonzero"/></g></g><g clip-path="url(#3c793025a8)"><path fill="#000000" d="M 812.867188 787.710938 L 1082.816406 787.710938 L 1082.816406 994.304688 L 812.867188 994.304688 Z M 812.867188 787.710938 " fill-opacity="1" fill-rule="nonzero"/></g><g clip-path="url(#5c217c9c32)"><g clip-path="url(#5cc6fb1f59)"><path fill="#8dbf2e" d="M 69.351562 419.742188 L 112.4375 419.742188 L 112.4375 462.832031 L 69.351562 462.832031 Z M 69.351562 419.742188 " fill-opacity="1" fill-rule="nonzero"/></g></g><g clip-path="url(#a2a9fb4cd1)"><g clip-path="url(#613b74b8e9)"><path fill="#8dbf2e" d="M 122.785156 419.742188 L 165.871094 419.742188 L 165.871094 462.832031 L 122.785156 462.832031 Z M 122.785156 419.742188 " fill-opacity="1" fill-rule="nonzero"/></g></g><g clip-path="url(#23a934ca26)"><g clip-path="url(#4399093e4f)"><path fill="#8dbf2e" d="M 176.21875 419.742188 L 219.308594 419.742188 L 219.308594 462.832031 L 176.21875 462.832031 Z M 176.21875 419.742188 " fill-opacity="1" fill-rule="nonzero"/></g></g><g clip-path="url(#a88f235a6e)"><g clip-path="url(#190d3fb451)"><path fill="#8dbf2e" d="M 229.652344 419.742188 L 272.742188 419.742188 L 272.742188 462.832031 L 229.652344 462.832031 Z M 229.652344 419.742188 " fill-opacity="1" fill-rule="nonzero"/></g></g><g clip-path="url(#11c84093fb)"><g clip-path="url(#9761119925)"><path fill="#8dbf2e" d="M 283.085938 419.742188 L 326.175781 419.742188 L 326.175781 462.832031 L 283.085938 462.832031 Z M 283.085938 419.742188 " fill-opacity="1" fill-rule="nonzero"/></g></g><g clip-path="url(#0e46512a1b)"><g clip-path="url(#0fc3c06cfa)"><path fill="#8dbf2e" d="M 336.519531 419.742188 L 379.609375 419.742188 L 379.609375 462.832031 L 336.519531 462.832031 Z M 336.519531 419.742188 " fill-opacity="1" fill-rule="nonzero"/></g></g><g clip-path="url(#40776682ed)"><g clip-path="url(#d920338aa4)"><path fill="#8dbf2e" d="M 389.953125 419.742188 L 433.042969 419.742188 L 433.042969 462.832031 L 389.953125 462.832031 Z M 389.953125 419.742188 " fill-opacity="1" fill-rule="nonzero"/></g></g><g clip-path="url(#a541c0717e)"><g clip-path="url(#c2878aadf2)"><path fill="#8dbf2e" d="M 443.386719 419.742188 L 486.476562 419.742188 L 486.476562 462.832031 L 443.386719 462.832031 Z M 443.386719 419.742188 " fill-opacity="1" fill-rule="nonzero"/></g></g><g clip-path="url(#76a7451ed5)"><g clip-path="url(#26e3a070b6)"><path fill="#8dbf2e" d="M 496.820312 419.742188 L 539.910156 419.742188 L 539.910156 462.832031 L 496.820312 462.832031 Z M 496.820312 419.742188 " fill-opacity="1" fill-rule="nonzero"/></g></g><g clip-path="url(#77e9cca3c9)"><g clip-path="url(#6ce8450b57)"><path fill="#8dbf2e" d="M 550.253906 419.742188 L 593.34375 419.742188 L 593.34375 462.832031 L 550.253906 462.832031 Z M 550.253906 419.742188 " fill-opacity="1" fill-rule="nonzero"/></g></g><g clip-path="url(#77b5bd800f)"><g clip-path="url(#63040e9c5a)"><path fill="#8dbf2e" d="M 603.6875 419.742188 L 646.777344 419.742188 L 646.777344 462.832031 L 603.6875 462.832031 Z M 603.6875 419.742188 " fill-opacity="1" fill-rule="nonzero"/></g></g><g clip-path="url(#b11512191b)"><g clip-path="url(#21b5fffc61)"><path fill="#8dbf2e" d="M 657.121094 419.742188 L 700.210938 419.742188 L 700.210938 462.832031 L 657.121094 462.832031 Z M 657.121094 419.742188 " fill-opacity="1" fill-rule="nonzero"/></g></g><g clip-path="url(#d073b0a666)"><g clip-path="url(#98963e3532)"><path fill="#8dbf2e" d="M 710.554688 419.742188 L 753.644531 419.742188 L 753.644531 462.832031 L 710.554688 462.832031 Z M 710.554688 419.742188 " fill-opacity="1" fill-rule="nonzero"/></g></g><g clip-path="url(#7f58385189)"><g clip-path="url(#97fd9247d8)"><path fill="#8dbf2e" d="M 763.992188 419.742188 L 807.078125 419.742188 L 807.078125 462.832031 L 763.992188 462.832031 Z M 763.992188 419.742188 " fill-opacity="1" fill-rule="nonzero"/></g></g><g clip-path="url(#ec69573fb3)"><g clip-path="url(#9d8739ab0c)"><path fill="#8dbf2e" d="M 817.425781 419.742188 L 860.515625 419.742188 L 860.515625 462.832031 L 817.425781 462.832031 Z M 817.425781 419.742188 " fill-opacity="1" fill-rule="nonzero"/></g></g><g clip-path="url(#4341747f83)"><g clip-path="url(#7dc2f4443c)"><path fill="#8dbf2e" d="M 870.859375 419.742188 L 913.949219 419.742188 L 913.949219 462.832031 L 870.859375 462.832031 Z M 870.859375 419.742188 " fill-opacity="1" fill-rule="nonzero"/></g></g><g clip-path="url(#332978671e)"><g clip-path="url(#0be809623a)"><path fill="#8dbf2e" d="M 924.292969 419.742188 L 967.382812 419.742188 L 967.382812 462.832031 L 924.292969 462.832031 Z M 924.292969 419.742188 " fill-opacity="1" fill-rule="nonzero"/></g></g><g clip-path="url(#66b3c0f423)"><g clip-path="url(#b21e2092a4)"><path fill="#8dbf2e" d="M 977.726562 419.742188 L 1020.816406 419.742188 L 1020.816406 462.832031 L 977.726562 462.832031 Z M 977.726562 419.742188 " fill-opacity="1" fill-rule="nonzero"/></g></g><g clip-path="url(#d939cff478)"><g clip-path="url(#bfb3da968d)"><path fill="#8dbf2e" d="M 1031.160156 419.742188 L 1074.25 419.742188 L 1074.25 462.832031 L 1031.160156 462.832031 Z M 1031.160156 419.742188 " fill-opacity="1" fill-rule="nonzero"/></g></g><g clip-path="url(#fd09399772)"><g clip-path="url(#b40bd18341)"><path fill="#007fa3" d="M 69.351562 366.328125 L 112.4375 366.328125 L 112.4375 409.417969 L 69.351562 409.417969 Z M 69.351562 366.328125 " fill-opacity="1" fill-rule="nonzero"/></g></g><g clip-path="url(#f5534cd5d9)"><g clip-path="url(#5b57dbbdcd)"><path fill="#ab1368" d="M 122.785156 366.328125 L 165.871094 366.328125 L 165.871094 409.417969 L 122.785156 409.417969 Z M 122.785156 366.328125 " fill-opacity="1" fill-rule="nonzero"/></g></g><g clip-path="url(#600645cf0f)"><g clip-path="url(#c407c2087e)"><path fill="#ab1368" d="M 176.21875 366.328125 L 219.308594 366.328125 L 219.308594 409.417969 L 176.21875 409.417969 Z M 176.21875 366.328125 " fill-opacity="1" fill-rule="nonzero"/></g></g><g clip-path="url(#b0dbbf0b8a)"><g clip-path="url(#0f66c8a061)"><path fill="#f1c500" d="M 229.652344 366.328125 L 272.742188 366.328125 L 272.742188 409.417969 L 229.652344 409.417969 Z M 229.652344 366.328125 " fill-opacity="1" fill-rule="nonzero"/></g></g><g clip-path="url(#f22ad9a31b)"><g clip-path="url(#c08a61d750)"><path fill="#f1c500" d="M 283.085938 366.328125 L 326.175781 366.328125 L 326.175781 409.417969 L 283.085938 409.417969 Z M 283.085938 366.328125 " fill-opacity="1" fill-rule="nonzero"/></g></g><g clip-path="url(#f8d7f5b659)"><g clip-path="url(#e79cb30d91)"><path fill="#00a189" d="M 336.519531 366.328125 L 379.609375 366.328125 L 379.609375 409.417969 L 336.519531 409.417969 Z M 336.519531 366.328125 " fill-opacity="1" fill-rule="nonzero"/></g></g><g clip-path="url(#0546b4d07d)"><g clip-path="url(#d5189a147e)"><path fill="#6fc7ea" d="M 389.953125 366.328125 L 433.042969 366.328125 L 433.042969 409.417969 L 389.953125 409.417969 Z M 389.953125 366.328125 " fill-opacity="1" fill-rule="nonzero"/></g></g><g clip-path="url(#23b24060b4)"><g clip-path="url(#cbdea4f1df)"><path fill="#dc4633" d="M 443.386719 366.328125 L 486.476562 366.328125 L 486.476562 409.417969 L 443.386719 409.417969 Z M 443.386719 366.328125 " fill-opacity="1" fill-rule="nonzero"/></g></g><g clip-path="url(#5686fb4644)"><g clip-path="url(#9134c35022)"><path fill="#dc4633" d="M 496.820312 366.328125 L 539.910156 366.328125 L 539.910156 409.417969 L 496.820312 409.417969 Z M 496.820312 366.328125 " fill-opacity="1" fill-rule="nonzero"/></g></g><g clip-path="url(#e5b25af111)"><g clip-path="url(#6bff9cf76d)"><path fill="#dc4633" d="M 550.253906 366.328125 L 593.34375 366.328125 L 593.34375 409.417969 L 550.253906 409.417969 Z M 550.253906 366.328125 " fill-opacity="1" fill-rule="nonzero"/></g></g><g clip-path="url(#efe80d2f6d)"><g clip-path="url(#307c4c8413)"><path fill="#007fa3" d="M 603.6875 366.328125 L 646.777344 366.328125 L 646.777344 409.417969 L 603.6875 409.417969 Z M 603.6875 366.328125 " fill-opacity="1" fill-rule="nonzero"/></g></g><g clip-path="url(#92e331502a)"><g clip-path="url(#c3e6d516fa)"><path fill="#00a189" d="M 657.121094 366.328125 L 700.210938 366.328125 L 700.210938 409.417969 L 657.121094 409.417969 Z M 657.121094 366.328125 " fill-opacity="1" fill-rule="nonzero"/></g></g><g clip-path="url(#4648396e79)"><g clip-path="url(#7e3b5fdd30)"><path fill="#00a189" d="M 710.554688 366.328125 L 753.644531 366.328125 L 753.644531 409.417969 L 710.554688 409.417969 Z M 710.554688 366.328125 " fill-opacity="1" fill-rule="nonzero"/></g></g><g clip-path="url(#cab30831d1)"><g clip-path="url(#bae50a8b8f)"><path fill="#00a189" d="M 763.992188 366.328125 L 807.078125 366.328125 L 807.078125 409.417969 L 763.992188 409.417969 Z M 763.992188 366.328125 " fill-opacity="1" fill-rule="nonzero"/></g></g><g clip-path="url(#f55bef8249)"><g clip-path="url(#107c06ac16)"><path fill="#6fc7ea" d="M 817.425781 366.328125 L 860.515625 366.328125 L 860.515625 409.417969 L 817.425781 409.417969 Z M 817.425781 366.328125 " fill-opacity="1" fill-rule="nonzero"/></g></g><g clip-path="url(#d84a826ee7)"><g clip-path="url(#672fe5a675)"><path fill="#ab1368" d="M 870.859375 366.328125 L 913.949219 366.328125 L 913.949219 409.417969 L 870.859375 409.417969 Z M 870.859375 366.328125 " fill-opacity="1" fill-rule="nonzero"/></g></g><g clip-path="url(#480ae02c19)"><g clip-path="url(#8beabf726f)"><path fill="#ab1368" d="M 924.292969 366.328125 L 967.382812 366.328125 L 967.382812 409.417969 L 924.292969 409.417969 Z M 924.292969 366.328125 " fill-opacity="1" fill-rule="nonzero"/></g></g><g clip-path="url(#74d5b852dc)"><g clip-path="url(#f35b344d28)"><path fill="#f1c500" d="M 977.726562 366.328125 L 1020.816406 366.328125 L 1020.816406 409.417969 L 977.726562 409.417969 Z M 977.726562 366.328125 " fill-opacity="1" fill-rule="nonzero"/></g></g><g clip-path="url(#736af8fd14)"><g clip-path="url(#57b294c2fc)"><path fill="#007fa3" d="M 69.351562 312.917969 L 112.4375 312.917969 L 112.4375 356.007812 L 69.351562 356.007812 Z M 69.351562 312.917969 " fill-opacity="1" fill-rule="nonzero"/></g></g><g clip-path="url(#c7f0dd136d)"><g clip-path="url(#75260a546b)"><path fill="#ab1368" d="M 122.785156 312.917969 L 165.871094 312.917969 L 165.871094 356.007812 L 122.785156 356.007812 Z M 122.785156 312.917969 " fill-opacity="1" fill-rule="nonzero"/></g></g><g clip-path="url(#c6b0cb6e4e)"><g clip-path="url(#4e6c6d71bc)"><path fill="#ab1368" d="M 176.21875 312.917969 L 219.308594 312.917969 L 219.308594 356.007812 L 176.21875 356.007812 Z M 176.21875 312.917969 " fill-opacity="1" fill-rule="nonzero"/></g></g><g clip-path="url(#0ddf75e96d)"><g clip-path="url(#90d7e7b333)"><path fill="#f1c500" d="M 229.652344 312.917969 L 272.742188 312.917969 L 272.742188 356.007812 L 229.652344 356.007812 Z M 229.652344 312.917969 " fill-opacity="1" fill-rule="nonzero"/></g></g><g clip-path="url(#d99677adc1)"><g clip-path="url(#70e6777425)"><path fill="#f1c500" d="M 283.085938 312.917969 L 326.175781 312.917969 L 326.175781 356.007812 L 283.085938 356.007812 Z M 283.085938 312.917969 " fill-opacity="1" fill-rule="nonzero"/></g></g><g clip-path="url(#14e53eaaa1)"><g clip-path="url(#8f0ffcb49d)"><path fill="#00a189" d="M 336.519531 312.917969 L 379.609375 312.917969 L 379.609375 356.007812 L 336.519531 356.007812 Z M 336.519531 312.917969 " fill-opacity="1" fill-rule="nonzero"/></g></g><g clip-path="url(#3aaa3aaec0)"><g clip-path="url(#9990ac8a5c)"><path fill="#6fc7ea" d="M 389.953125 312.917969 L 433.042969 312.917969 L 433.042969 356.007812 L 389.953125 356.007812 Z M 389.953125 312.917969 " fill-opacity="1" fill-rule="nonzero"/></g></g><g clip-path="url(#05075de9e9)"><g clip-path="url(#141130e40f)"><path fill="#dc4633" d="M 443.386719 312.917969 L 486.476562 312.917969 L 486.476562 356.007812 L 443.386719 356.007812 Z M 443.386719 312.917969 " fill-opacity="1" fill-rule="nonzero"/></g></g><g clip-path="url(#d24705fc5c)"><g clip-path="url(#0a7eab90c1)"><path fill="#dc4633" d="M 496.820312 312.917969 L 539.910156 312.917969 L 539.910156 356.007812 L 496.820312 356.007812 Z M 496.820312 312.917969 " fill-opacity="1" fill-rule="nonzero"/></g></g><g clip-path="url(#ab3bac79d1)"><g clip-path="url(#a06024501d)"><path fill="#dc4633" d="M 550.253906 312.917969 L 593.34375 312.917969 L 593.34375 356.007812 L 550.253906 356.007812 Z M 550.253906 312.917969 " fill-opacity="1" fill-rule="nonzero"/></g></g><g clip-path="url(#b09fb9cdbb)"><g clip-path="url(#c87f7639be)"><path fill="#00a189" d="M 710.554688 312.917969 L 753.644531 312.917969 L 753.644531 356.007812 L 710.554688 356.007812 Z M 710.554688 312.917969 " fill-opacity="1" fill-rule="nonzero"/></g></g><g clip-path="url(#c641f7f8d0)"><g clip-path="url(#1b4c37fe8b)"><path fill="#00a189" d="M 763.992188 312.917969 L 807.078125 312.917969 L 807.078125 356.007812 L 763.992188 356.007812 Z M 763.992188 312.917969 " fill-opacity="1" fill-rule="nonzero"/></g></g><g clip-path="url(#d83a512015)"><g clip-path="url(#b6f4e1fda2)"><path fill="#6fc7ea" d="M 817.425781 312.917969 L 860.515625 312.917969 L 860.515625 356.007812 L 817.425781 356.007812 Z M 817.425781 312.917969 " fill-opacity="1" fill-rule="nonzero"/></g></g><g clip-path="url(#5190a5c99b)"><g clip-path="url(#27c3ac2c4b)"><path fill="#ab1368" d="M 896.652344 312.746094 L 939.742188 312.746094 L 939.742188 355.835938 L 896.652344 355.835938 Z M 896.652344 312.746094 " fill-opacity="1" fill-rule="nonzero"/></g></g><g clip-path="url(#064925b52c)"><g clip-path="url(#263bb92439)"><path fill="#ab1368" d="M 122.785156 259.507812 L 165.871094 259.507812 L 165.871094 302.597656 L 122.785156 302.597656 Z M 122.785156 259.507812 " fill-opacity="1" fill-rule="nonzero"/></g></g><g clip-path="url(#fc422a788b)"><g clip-path="url(#60ea08ef09)"><path fill="#ab1368" d="M 176.21875 259.507812 L 219.308594 259.507812 L 219.308594 302.597656 L 176.21875 302.597656 Z M 176.21875 259.507812 " fill-opacity="1" fill-rule="nonzero"/></g></g><g clip-path="url(#cef425be9e)"><g clip-path="url(#909fdbe569)"><path fill="#f1c500" d="M 229.652344 259.507812 L 272.742188 259.507812 L 272.742188 302.597656 L 229.652344 302.597656 Z M 229.652344 259.507812 " fill-opacity="1" fill-rule="nonzero"/></g></g><g clip-path="url(#8f3cd257f0)"><g clip-path="url(#5396af4e33)"><path fill="#f1c500" d="M 283.085938 259.507812 L 326.175781 259.507812 L 326.175781 302.597656 L 283.085938 302.597656 Z M 283.085938 259.507812 " fill-opacity="1" fill-rule="nonzero"/></g></g><g clip-path="url(#85a9b7b79a)"><g clip-path="url(#10b44ff124)"><path fill="#00a189" d="M 336.519531 259.507812 L 379.609375 259.507812 L 379.609375 302.597656 L 336.519531 302.597656 Z M 336.519531 259.507812 " fill-opacity="1" fill-rule="nonzero"/></g></g><g clip-path="url(#2c62d26c3d)"><g clip-path="url(#b0723d9520)"><path fill="#6fc7ea" d="M 389.953125 259.507812 L 433.042969 259.507812 L 433.042969 302.597656 L 389.953125 302.597656 Z M 389.953125 259.507812 " fill-opacity="1" fill-rule="nonzero"/></g></g><g clip-path="url(#aef63fe106)"><g clip-path="url(#addbc030c8)"><path fill="#dc4633" d="M 496.820312 259.507812 L 539.910156 259.507812 L 539.910156 302.597656 L 496.820312 302.597656 Z M 496.820312 259.507812 " fill-opacity="1" fill-rule="nonzero"/></g></g><g clip-path="url(#bc0cbff89e)"><g clip-path="url(#1a43291ed3)"><path fill="#00a189" d="M 763.992188 259.507812 L 807.078125 259.507812 L 807.078125 302.597656 L 763.992188 302.597656 Z M 763.992188 259.507812 " fill-opacity="1" fill-rule="nonzero"/></g></g><g clip-path="url(#850346b1f8)"><g clip-path="url(#e012e39ed0)"><path fill="#6fc7ea" d="M 817.425781 259.507812 L 860.515625 259.507812 L 860.515625 302.597656 L 817.425781 302.597656 Z M 817.425781 259.507812 " fill-opacity="1" fill-rule="nonzero"/></g></g><g clip-path="url(#af1ecc63b0)"><g clip-path="url(#6c8b6c6a3c)"><path fill="#ab1368" d="M 122.785156 206.09375 L 165.871094 206.09375 L 165.871094 249.183594 L 122.785156 249.183594 Z M 122.785156 206.09375 " fill-opacity="1" fill-rule="nonzero"/></g></g><g clip-path="url(#57069c5a7b)"><g clip-path="url(#b6438a0aa7)"><path fill="#ab1368" d="M 176.21875 206.09375 L 219.308594 206.09375 L 219.308594 249.183594 L 176.21875 249.183594 Z M 176.21875 206.09375 " fill-opacity="1" fill-rule="nonzero"/></g></g><g clip-path="url(#b0de43e76d)"><g clip-path="url(#462b50940b)"><path fill="#f1c500" d="M 283.085938 206.09375 L 326.175781 206.09375 L 326.175781 249.183594 L 283.085938 249.183594 Z M 283.085938 206.09375 " fill-opacity="1" fill-rule="nonzero"/></g></g><g clip-path="url(#3cdb8bcbcf)"><g clip-path="url(#100cc05cbf)"><path fill="#00a189" d="M 336.519531 206.09375 L 379.609375 206.09375 L 379.609375 249.183594 L 336.519531 249.183594 Z M 336.519531 206.09375 " fill-opacity="1" fill-rule="nonzero"/></g></g><g clip-path="url(#9b121b7304)"><g clip-path="url(#78e038634a)"><path fill="#6fc7ea" d="M 389.953125 206.09375 L 433.042969 206.09375 L 433.042969 249.183594 L 389.953125 249.183594 Z M 389.953125 206.09375 " fill-opacity="1" fill-rule="nonzero"/></g></g><g clip-path="url(#513631c5a5)"><g clip-path="url(#9c214f0dd3)"><path fill="#ab1368" d="M 122.785156 152.683594 L 165.871094 152.683594 L 165.871094 195.773438 L 122.785156 195.773438 Z M 122.785156 152.683594 " fill-opacity="1" fill-rule="nonzero"/></g></g><g clip-path="url(#12f6430626)"><g clip-path="url(#0aa50f8c1d)"><path fill="#f1c500" d="M 283.085938 152.683594 L 326.175781 152.683594 L 326.175781 195.773438 L 283.085938 195.773438 Z M 283.085938 152.683594 " fill-opacity="1" fill-rule="nonzero"/></g></g><g clip-path="url(#542ac2adbc)"><g clip-path="url(#ac4a91b7ae)"><path fill="#6fc7ea" d="M 389.953125 152.683594 L 433.042969 152.683594 L 433.042969 195.773438 L 389.953125 195.773438 Z M 389.953125 152.683594 " fill-opacity="1" fill-rule="nonzero"/></g></g><g clip-path="url(#a7e1c8305d)"><g clip-path="url(#6bd51be078)"><path fill="#ab1368" d="M 122.785156 99.273438 L 165.871094 99.273438 L 165.871094 142.359375 L 122.785156 142.359375 Z M 122.785156 99.273438 " fill-opacity="1" fill-rule="nonzero"/></g></g><g clip-path="url(#e79e0bb0fc)"><g clip-path="url(#4f2a73625e)"><path fill="#6fc7ea" d="M 389.953125 99.273438 L 433.042969 99.273438 L 433.042969 142.359375 L 389.953125 142.359375 Z M 389.953125 99.273438 " fill-opacity="1" fill-rule="nonzero"/></g></g><g clip-path="url(#8d391b2bfb)"><g clip-path="url(#f5e8f0d94d)"><path fill="#6fc7ea" d="M 389.953125 45.859375 L 433.042969 45.859375 L 433.042969 88.949219 L 389.953125 88.949219 Z M 389.953125 45.859375 " fill-opacity="1" fill-rule="nonzero"/></g></g></svg>